<svg width="23" height="16" viewBox="0 0 23 16" fill="none" xmlns="http://www.w3.org/2000/svg">
<g clip-path="url(#clip0_601_1320)">
<g clip-path="url(#clip1_601_1320)">
<rect x="0.5" width="22" height="16" rx="2" fill="white"/>
<path fill-rule="evenodd" clip-rule="evenodd" d="M11.4999 10.6663C12.9456 10.6663 14.119 9.47167 14.119 7.99967C14.119 6.52767 12.9456 5.33301 11.4999 5.33301C10.0542 5.33301 8.88086 6.52767 8.88086 7.99967C8.88086 9.47167 10.0542 10.6663 11.4999 10.6663ZM11.4999 9.59967C12.3673 9.59967 13.0713 8.88287 13.0713 7.99967C13.0713 7.11647 12.3673 6.39967 11.4999 6.39967C10.6325 6.39967 9.92848 7.11647 9.92848 7.99967C9.92848 8.88287 10.6325 9.59967 11.4999 9.59967Z" fill="#1A47B8"/>
<path d="M11.5004 8.53346C11.7897 8.53346 12.0242 8.29468 12.0242 8.00013C12.0242 7.70558 11.7897 7.4668 11.5004 7.4668C11.2111 7.4668 10.9766 7.70558 10.9766 8.00013C10.9766 8.29468 11.2111 8.53346 11.5004 8.53346Z" fill="#1A47B8"/>
<path fill-rule="evenodd" clip-rule="evenodd" d="M0.5 11H22.5V16H0.5V11Z" fill="#249F58"/>
<path fill-rule="evenodd" clip-rule="evenodd" d="M0.5 0H22.5V5H0.5V0Z" fill="#FF6C2D"/>
</g>
</g>
<defs>
<clipPath id="clip0_601_1320">
<rect width="22" height="16" fill="white" transform="translate(0.5)"/>
</clipPath>
<clipPath id="clip1_601_1320">
<rect x="0.5" width="22" height="16" rx="2" fill="white"/>
</clipPath>
</defs>
</svg>
